<svg xmlns="http://www.w3.org/2000/svg" width="185.879" height="19" viewBox="0 0 185.879 19">
  <g id="logo" transform="translate(4412.005 7465.843)">
    <path id="Path_31219" data-name="Path 31219" d="M1.8-21.287a9.94,9.94,0,0,1,1.086-4.676A7.97,7.97,0,0,1,6-29.221,9.371,9.371,0,0,1,10.8-30.4a9.572,9.572,0,0,1,3.046.5A8.156,8.156,0,0,1,16.3-28.655v3.613a7.691,7.691,0,0,0-2.373-2.043,6.162,6.162,0,0,0-3.011-.744,5.254,5.254,0,0,0-2.869.815A5.714,5.714,0,0,0,6-24.711a7.459,7.459,0,0,0-.756,3.424v.425A7.406,7.406,0,0,0,6-17.461a5.769,5.769,0,0,0,2.055,2.314,5.216,5.216,0,0,0,2.857.827,6.162,6.162,0,0,0,3.011-.744A7.691,7.691,0,0,0,16.3-17.107v3.613a8.156,8.156,0,0,1-2.456,1.252,9.572,9.572,0,0,1-3.046.5A9.371,9.371,0,0,1,6-12.927a7.97,7.97,0,0,1-3.117-3.259A9.94,9.94,0,0,1,1.8-20.861ZM18.306-18.76a6.8,6.8,0,0,1,.838-3.353,6.152,6.152,0,0,1,2.314-2.373,6.456,6.456,0,0,1,3.318-.862,6.456,6.456,0,0,1,3.318.862,6.152,6.152,0,0,1,2.314,2.373,6.8,6.8,0,0,1,.838,3.353v.4a6.825,6.825,0,0,1-.838,3.389,6.175,6.175,0,0,1-2.314,2.362,6.456,6.456,0,0,1-3.318.862,6.456,6.456,0,0,1-3.318-.862,6.152,6.152,0,0,1-2.314-2.373,6.843,6.843,0,0,1-.838-3.377Zm3.164.4a5.109,5.109,0,0,0,.874,3.058,2.826,2.826,0,0,0,2.432,1.216A2.826,2.826,0,0,0,27.209-15.3a5.109,5.109,0,0,0,.874-3.058v-.4a5.067,5.067,0,0,0-.874-3.035,2.826,2.826,0,0,0-2.432-1.216,2.826,2.826,0,0,0-2.432,1.216,5.067,5.067,0,0,0-.874,3.035ZM33.727-12.1V-24.994h2.857l.189,1.866a5.834,5.834,0,0,1,1.748-1.582,4.5,4.5,0,0,1,2.362-.638A4.4,4.4,0,0,1,44.224-24.1a4.967,4.967,0,0,1,1.193,3.566V-12.1H42.37v-8.431q0-2.456-1.984-2.456A3.3,3.3,0,0,0,38.2-22.1a4.656,4.656,0,0,0-1.429,2.137V-12.1Zm14.76,0V-24.994h2.857l.189,1.866a5.834,5.834,0,0,1,1.748-1.582,4.5,4.5,0,0,1,2.362-.638A4.4,4.4,0,0,1,58.983-24.1a4.967,4.967,0,0,1,1.193,3.566V-12.1H57.13v-8.431q0-2.456-1.984-2.456a3.3,3.3,0,0,0-2.184.886,4.656,4.656,0,0,0-1.429,2.137V-12.1ZM62.3-18.807a7.278,7.278,0,0,1,.767-3.365,5.717,5.717,0,0,1,2.149-2.338,6,6,0,0,1,3.176-.838,5.459,5.459,0,0,1,4.357,1.783,7.229,7.229,0,0,1,1.547,4.9v1.181h-9a3.837,3.837,0,0,0,1.11,2.515,3.579,3.579,0,0,0,2.55.886,6.063,6.063,0,0,0,2.338-.449,6.487,6.487,0,0,0,2.125-1.511v2.9a6.3,6.3,0,0,1-2.043,1.027,8.607,8.607,0,0,1-2.539.366,7.085,7.085,0,0,1-3.554-.838,5.481,5.481,0,0,1-2.232-2.326,7.459,7.459,0,0,1-.756-3.424Zm8.974-.992a3.412,3.412,0,0,0-.791-2.4,2.73,2.73,0,0,0-2.114-.862,2.791,2.791,0,0,0-2.09.9,3.621,3.621,0,0,0-.956,2.362Zm4.676,1.015a6.584,6.584,0,0,1,.85-3.283,6.238,6.238,0,0,1,2.409-2.4,7.139,7.139,0,0,1,3.59-.886,6.605,6.605,0,0,1,2.078.319,6,6,0,0,1,1.653.815V-21.1a4.111,4.111,0,0,0-1.57-1.381,4.347,4.347,0,0,0-1.948-.46,3.737,3.737,0,0,0-1.925.52,3.841,3.841,0,0,0-1.417,1.464,4.355,4.355,0,0,0-.531,2.173v.472a4.205,4.205,0,0,0,.543,2.114,3.966,3.966,0,0,0,1.441,1.488,3.652,3.652,0,0,0,1.889.531,4.516,4.516,0,0,0,3.519-1.771v3.023a5.482,5.482,0,0,1-1.629.85,6.777,6.777,0,0,1-2.2.331,6.931,6.931,0,0,1-3.507-.886,6.285,6.285,0,0,1-2.4-2.385,6.519,6.519,0,0,1-.85-3.271ZM90.97-22.656H88.184v-2.338H90.97v-3.92h3.046v3.92h2.857v2.338H94.017V-12.1H90.97Z" transform="translate(-4323 -7435.1)" fill="#fff"/>
    <path id="Path_31218" data-name="Path 31218" d="M521.059,446.353a1.293,1.293,0,0,0-1.369-1.368H514.35a2.345,2.345,0,0,0-1.4.424L488.66,461.183a.354.354,0,0,1-.189.073c-.086,0-.13-.083-.13-.227V446.353a1.292,1.292,0,0,0-1.368-1.368H475.125a2.377,2.377,0,0,0-1.452.41l-22.016,13.23a.413.413,0,0,1-.194.08c-.091,0-.129-.065-.129-.206V445.121c0-.226-.055-.329-.153-.329a.332.332,0,0,0-.177.059l-6.515,3.914a2.555,2.555,0,0,0-1.369,2.6V461.37a1.294,1.294,0,0,0,1.369,1.369H452.3a2.385,2.385,0,0,0,1.37-.409l8.487-5.1a.322.322,0,0,1,.156-.055.215.215,0,0,1,.146.08l5.073,5.073a1.837,1.837,0,0,0,1.37.41h7.57c.143,0,.266-.046.266-.145s-.077-.172-.189-.285l-8.366-8.369c-.082-.083-.1-.13-.1-.181s.032-.118.15-.184l11.712-7.036a.367.367,0,0,1,.192-.071c.082,0,.129.1.129.206v14.69a1.294,1.294,0,0,0,1.369,1.369h11.775a2.334,2.334,0,0,0,1.363-.42l17.757-11.535a.373.373,0,0,1,.189-.07c.087,0,.132.1.132.229v11.9c0,.221.071.283.15.283a.431.431,0,0,0,.216-.081l6.476-3.89a2.562,2.562,0,0,0,1.369-2.6Z" transform="translate(-4855.122 -7910.635)" fill="#fff"/>
  </g>
</svg>
